<?xml version="1.0" encoding="UTF-8" standalone="no"?>
<!-- Created with Inkscape (http://www.inkscape.org/) -->

<svg
   version="1.1"
   id="svg2"
   width="6666.6665"
   height="4266.6665"
   viewBox="0 0 6666.6665 4266.6665"
   sodipodi:docname="iStock-1196467762.eps"
   xmlns:inkscape="http://www.inkscape.org/namespaces/inkscape"
   xmlns:sodipodi="http://sodipodi.sourceforge.net/DTD/sodipodi-0.dtd"
   xmlns="http://www.w3.org/2000/svg"
   xmlns:svg="http://www.w3.org/2000/svg">
  <defs
     id="defs6">
    <clipPath
       clipPathUnits="userSpaceOnUse"
       id="clipPath18">
      <path
         d="M 50000,0 H 0 V 32000 H 50000 V 0 M 38173.4,11382.7 c -63,-343.9 -351.2,-1925.4 -362.7,-2143.8 -5.9,-113 268.6,-258.1 597.3,-258.1 384.6,0 843.4,198.5 1014.8,879.1 1.5,6.1 3.1,12.4 4.6,18.6 -39.9,-211.3 131.1,-483.3 508.8,-483.3 71.6,0 150.6,9.8 237,31.6 271.5,68.6 507.6,601.1 679.7,1137 56.3,175 105.7,350.3 147.4,509.9 5.3,20.2 10.4,40.1 15.4,59.8 52.1,-14.5 97.4,-29.7 136.3,-46.1 809.1,-652.8 1524.1,-970.9 2128.8,-1096.2 233.5,-49.4 450.6,-70 650.5,-70 1018.8,0 1589.5,536.3 1589.5,536.3 l 598.3,33.1 0.4,-40.8 1341.1,-20.9 -4.8,139.1 2,0.2 219.8,12.1 -92.2,2979.6 -2.1,1778.8 -291.6,32.3 -15,441.4 h -1204.6 l 2.7,-306.6 -3.3,0.4 c 0,0 -3613.9,2377.3 -4022.1,2617.8 -83.8,49.5 -150.1,83.3 -195.1,98.8 -21,7.1 -46.7,13.9 -76.4,20.2 -47.7,9.8 -105.8,18.5 -173.6,25.8 -208.8,22.9 -506.9,33.9 -855.9,33.9 l -8859.7,8956.2 208,204.8 v 0 c -192.2,119.2 -389.5,168.8 -580.9,172.2 l -3721.3,3761.8 -7396.1,-7315.4 2525.5,-2553 c -194.2,-146.6 -385.4,-290.8 -572.4,-432 -79.8,-60.2 -158.8,-119.8 -237.1,-178.9 -1681.7,-1268.8 -2987.8,-2252.2 -3134.8,-2358.5 -60.1,-43.3 -112.7,-83.4 -158.6,-121.3 l -0.1,-0.1 c -10,-8.4 -19.8,-16.5 -29.2,-24.7 h -0.1 c -260.3,-224.2 -279.1,-378.5 -204.1,-713.4 16.5,-74.2 57.2,-211.6 112.7,-386.5 95.6,-301.7 235,-714.5 369.4,-1105.8 72.4,-210.8 143.3,-415.3 205.3,-592.9 117.8,-338 202.9,-578.4 202.9,-578.4 l 314.4,309.6 1.7,1.6 314.5,309.7 0.1,0.1 h 0.1 l 2982.7,2937.5 h 0.1 l 1191.9,1173.9 193.4,190.4 460.4,-465.4 385.8,-390.1 9335.3,-9436.9 1809.7,1790.2 -192,-1185.1 c 227.4,-124.2 437.4,-177 628.3,-177 616,0 1032.5,549.7 1190.2,1020.4 22.8,67.9 48.1,159.1 75.1,267.4 1.3,-0.1 2.6,-0.2 3.9,-0.4 m 1262.4,-1470.3 c 14.7,60 29,120.7 42.8,181.5 -16.5,-79.6 -31.1,-142.9 -42.8,-181.5 m -791,3698.5 690.7,683.3 591.1,30.7 606.5,-224.3 c -11.1,-29.6 -18.2,-45.7 -18.2,-45.7 0,0 -494.7,-182 -1205.5,-329.7 l -0.7,-0.2 c -8.9,-1.8 -17.9,-3.7 -26.9,-5.6 -190,-38.7 -395.1,-75.1 -609.8,-104.7 -1.4,-0.3 -2.6,-0.3 -3.9,-0.5 -7.8,-1.1 -15.5,-2.2 -23.3,-3.3"
         id="path16" />
    </clipPath>
    <radialGradient
       fx="0"
       fy="0"
       cx="0"
       cy="0"
       r="1"
       gradientUnits="userSpaceOnUse"
       gradientTransform="matrix(37370.3,0,0,-37370.3,25000,16000)"
       spreadMethod="pad"
       id="radialGradient24">
      <stop
         style="stop-opacity:1;stop-color:#c3dbf3"
         offset="0"
         id="stop20" />
      <stop
         style="stop-opacity:1;stop-color:#93b8e5"
         offset="1"
         id="stop22" />
    </radialGradient>
    <clipPath
       clipPathUnits="userSpaceOnUse"
       id="clipPath88">
      <path
         d="m 43931.3,9921.2 c -199.9,0 -417,20.6 -650.5,70 228.2,-47.2 440.4,-67 636.3,-67 1018.8,0 1589.5,536.4 1589.5,536.4 l 339,18.6 268.7,14.8 4.8,0.3 v -3.7 l -598.3,-33.1 c 0,0 -570.7,-536.3 -1589.5,-536.3"
         id="path86" />
    </clipPath>
    <radialGradient
       fx="0"
       fy="0"
       cx="0"
       cy="0"
       r="1"
       gradientUnits="userSpaceOnUse"
       gradientTransform="matrix(37370.3,0,0,-37370.3,25000,16000)"
       spreadMethod="pad"
       id="radialGradient94">
      <stop
         style="stop-opacity:1;stop-color:#505d7b"
         offset="0"
         id="stop90" />
      <stop
         style="stop-opacity:1;stop-color:#45537c"
         offset="1"
         id="stop92" />
    </radialGradient>
    <clipPath
       clipPathUnits="userSpaceOnUse"
       id="clipPath132">
      <path
         d="m 25322.9,19104.1 -385.8,390.1 385.8,-390.1 v 0"
         id="path130" />
    </clipPath>
    <radialGradient
       fx="0"
       fy="0"
       cx="0"
       cy="0"
       r="1"
       gradientUnits="userSpaceOnUse"
       gradientTransform="matrix(37370.3,0,0,-37370.3,25000,16000)"
       spreadMethod="pad"
       id="radialGradient138">
      <stop
         style="stop-opacity:1;stop-color:#7f96cc"
         offset="0"
         id="stop134" />
      <stop
         style="stop-opacity:1;stop-color:#6483ca"
         offset="1"
         id="stop136" />
    </radialGradient>
  </defs>
  <sodipodi:namedview
     id="namedview4"
     pagecolor="#ffffff"
     bordercolor="#000000"
     borderopacity="0.25"
     inkscape:showpageshadow="2"
     inkscape:pageopacity="0.0"
     inkscape:pagecheckerboard="0"
     inkscape:deskcolor="#d1d1d1" />
  <g
     id="g8"
     inkscape:groupmode="layer"
     inkscape:label="ink_ext_XXXXXX"
     transform="matrix(1.3333333,0,0,-1.3333333,0,4266.6667)">
    <g
       id="g10"
       transform="scale(0.1)">
      <g
         id="g12">
        <g
           id="g14"
           clip-path="url(#clipPath18)">
          <path
             d="M 50000,0 H 0 V 32000 H 50000 V 0 M 38173.4,11382.7 c -63,-343.9 -351.2,-1925.4 -362.7,-2143.8 -5.9,-113 268.6,-258.1 597.3,-258.1 384.6,0 843.4,198.5 1014.8,879.1 1.5,6.1 3.1,12.4 4.6,18.6 -39.9,-211.3 131.1,-483.3 508.8,-483.3 71.6,0 150.6,9.8 237,31.6 271.5,68.6 507.6,601.1 679.7,1137 56.3,175 105.7,350.3 147.4,509.9 5.3,20.2 10.4,40.1 15.4,59.8 52.1,-14.5 97.4,-29.7 136.3,-46.1 809.1,-652.8 1524.1,-970.9 2128.8,-1096.2 233.5,-49.4 450.6,-70 650.5,-70 1018.8,0 1589.5,536.3 1589.5,536.3 l 598.3,33.1 0.4,-40.8 1341.1,-20.9 -4.8,139.1 2,0.2 219.8,12.1 -92.2,2979.6 -2.1,1778.8 -291.6,32.3 -15,441.4 h -1204.6 l 2.7,-306.6 -3.3,0.4 c 0,0 -3613.9,2377.3 -4022.1,2617.8 -83.8,49.5 -150.1,83.3 -195.1,98.8 -21,7.1 -46.7,13.9 -76.4,20.2 -47.7,9.8 -105.8,18.5 -173.6,25.8 -208.8,22.9 -506.9,33.9 -855.9,33.9 l -8859.7,8956.2 208,204.8 v 0 c -192.2,119.2 -389.5,168.8 -580.9,172.2 l -3721.3,3761.8 -7396.1,-7315.4 2525.5,-2553 c -194.2,-146.6 -385.4,-290.8 -572.4,-432 -79.8,-60.2 -158.8,-119.8 -237.1,-178.9 -1681.7,-1268.8 -2987.8,-2252.2 -3134.8,-2358.5 -60.1,-43.3 -112.7,-83.4 -158.6,-121.3 l -0.1,-0.1 c -10,-8.4 -19.8,-16.5 -29.2,-24.7 h -0.1 c -260.3,-224.2 -279.1,-378.5 -204.1,-713.4 16.5,-74.2 57.2,-211.6 112.7,-386.5 95.6,-301.7 235,-714.5 369.4,-1105.8 72.4,-210.8 143.3,-415.3 205.3,-592.9 117.8,-338 202.9,-578.4 202.9,-578.4 l 314.4,309.6 1.7,1.6 314.5,309.7 0.1,0.1 h 0.1 l 2982.7,2937.5 h 0.1 l 1191.9,1173.9 193.4,190.4 460.4,-465.4 385.8,-390.1 9335.3,-9436.9 1809.7,1790.2 -192,-1185.1 c 227.4,-124.2 437.4,-177 628.3,-177 616,0 1032.5,549.7 1190.2,1020.4 22.8,67.9 48.1,159.1 75.1,267.4 1.3,-0.1 2.6,-0.2 3.9,-0.4 m 1262.4,-1470.3 c 14.7,60 29,120.7 42.8,181.5 -16.5,-79.6 -31.1,-142.9 -42.8,-181.5 m -791,3698.5 690.7,683.3 591.1,30.7 606.5,-224.3 c -11.1,-29.6 -18.2,-45.7 -18.2,-45.7 0,0 -494.7,-182 -1205.5,-329.7 l -0.7,-0.2 c -8.9,-1.8 -17.9,-3.7 -26.9,-5.6 -190,-38.7 -395.1,-75.1 -609.8,-104.7 -1.4,-0.3 -2.6,-0.3 -3.9,-0.5 -7.8,-1.1 -15.5,-2.2 -23.3,-3.3"
             style="fill:url(#radialGradient24);fill-opacity:1;fill-rule:nonzero;stroke:none"
             id="path26" />
        </g>
      </g>
      <path
         d="m 38944.9,14636.8 c 0,0 -361.9,-1964.4 -374.8,-2209.7 -12.9,-245.2 1294.2,-641.5 1612,620.9 317.8,1262.5 406.9,2764.4 406.9,2764.4 l -1644.1,-1175.6"
         style="fill:#1d1f30;fill-opacity:1;fill-rule:nonzero;stroke:none"
         id="path28" />
      <path
         d="m 36275.9,10272.3 910.3,5619.7 4010.5,673.6 2268.2,207.5 -187.8,-2113.8 -1831.3,-896.1 -1519.2,561.7 -1208.3,-62.8 c 0,0 -417.2,-2529.8 -623.9,-3146.4 -206.6,-616.5 -857.1,-1368.6 -1818.5,-843.4"
         style="fill:#1d1f30;fill-opacity:1;fill-rule:nonzero;stroke:none"
         id="path30" />
      <path
         d="m 38185.5,11448.6 c 0,0 -361.9,-1964.4 -374.8,-2209.7 -12.9,-245.2 1294.3,-641.5 1612.1,621 317.8,1262.4 406.9,2764.3 406.9,2764.3 l -1644.2,-1175.6"
         style="fill:#1d1f30;fill-opacity:1;fill-rule:nonzero;stroke:none"
         id="path32" />
      <path
         d="m 41151.6,11731.3 c 0,0 -54.5,-286.4 -151.3,-657.6 -41.7,-159.6 -91.1,-334.9 -147.4,-509.9 -172.1,-535.9 -408.2,-1068.4 -679.7,-1137 -566.1,-142.9 -814.8,231.1 -737.8,484.4 26.9,87.9 69.4,307.6 113.6,556.9 48.3,272.7 98.4,580.9 131.9,790.8 24.1,150.8 39.5,251 39.5,251 l 1431.2,221.4"
         style="fill:#1d1f30;fill-opacity:1;fill-rule:nonzero;stroke:none"
         id="path34" />
      <path
         d="m 47583.3,15338.7 2.1,-1778.8 92.2,-2979.6 -219.8,-12.1 -1337.8,-73.9 h -0.1 l -5.6,-0.3 -268.7,-14.8 -339,-18.6 c 0,0 -1652.4,-1553.5 -4354.6,626.8 -38.9,16.4 -84.2,31.6 -136.3,46.1 -253.2,69.7 -669.2,117.5 -1323.5,163.7 l -5,0.4 c -255.8,18 -548.2,36 -881.2,54.8 -57.3,3.2 -115.8,6.5 -175.4,9.8 -45.4,2.7 -89.4,5.3 -132.2,8.2 -115.8,7.9 -223,17 -322.2,27.1 -1,0.1 -1.9,0.3 -3,0.4 -492.8,50.6 -794.5,125.9 -1022.8,185.2 -77,20 -145.7,38.2 -210.4,53.1 -3,0.6 -6.2,1.4 -9.1,2 l -0.6,0.3 c -28.3,6.6 -56,13.8 -82.9,21.6 -91.3,26.2 -175.5,58.9 -252.5,97 -51.6,25.3 -100,53.1 -145.2,82.8 l -0.6,0.4 c -207.4,136.5 -349.1,315.9 -427.9,505.6 -7.3,17.7 -14.2,35.5 -20.5,53.5 -50,143.2 -65.2,290.4 -46.7,428.7 0.5,3 0.8,6 1.2,9.1 26.5,182.8 112,349.4 253.8,468.4 15.2,12.9 31.3,25.1 47.7,36.9 l 1,0.6 c 121.6,85.5 332.1,120.2 615.7,140.5 30.6,2.3 61.6,4.3 93.7,6.1 2.7,0.2 5.4,0.4 8.3,0.6 346.6,20.3 788.2,27.3 1301.1,77.8 106.9,10.5 217,22.9 329.9,37.8 20.5,2.6 41,5.3 61.7,8.3 1.3,0.2 2.5,0.2 3.9,0.5 214.7,29.6 419.8,66 609.8,104.7 9,1.9 18,3.8 26.9,5.6 l 0.7,0.2 c 710.8,147.7 1205.5,329.7 1205.5,329.7 0,0 65.4,148.6 112.6,373.6 69.2,328.3 99.8,819.8 -168.2,1248.7 -20,32.2 -41.8,63.7 -65.2,95 -21.7,4.9 -54.8,8.6 -97.6,11.4 -24.4,1.5 -51.9,2.8 -82.4,3.5 -75.5,2.4 -168.5,2.7 -274.4,1.7 -372.4,-4 -902.4,-26 -1376.7,-49.4 -186.1,-9.2 -363.6,-18.6 -519.8,-27.2 -223.8,-12.1 -403.5,-22.9 -501.4,-28.6 -52,-3.2 -80.9,-5 -80.9,-5 0,0 -2316.8,-3737.9 -2512.5,-3914.8 -547,-494.6 -1508.5,515.4 -1508.5,515.4 183.9,396.6 2612.1,5026.1 3053.9,5484.4 243.1,252 1657.2,428 2981.4,501.3 349.4,19.3 692.6,31.4 1006.4,35.9 463.4,6.6 862.5,-3.5 1122.7,-32 67.8,-7.3 125.9,-16 173.6,-25.8 29.7,-6.3 55.4,-13.1 76.4,-20.2 45,-15.5 111.3,-49.3 195.1,-98.8 408.2,-240.5 4022.1,-2617.8 4022.1,-2617.8 l 1214.4,-134.5 297.4,-33"
         style="fill:#323b6a;fill-opacity:1;fill-rule:nonzero;stroke:none"
         id="path36" />
      <path
         d="m 46072.1,15812.4 47.4,-5362.6 1341.1,-20.9 -183.9,5383.5 h -1204.6"
         style="fill:#ffffff;fill-opacity:1;fill-rule:nonzero;stroke:none"
         id="path38" />
      <path
         d="m 46978.3,15812.4 184.1,-5702 2837.6,-15.1 V 16000 l -3021.7,-187.6"
         style="fill:#323b6a;fill-opacity:1;fill-rule:nonzero;stroke:none"
         id="path40" />
      <path
         d="m 35345.9,19045.1 c -148.1,-726 -877.6,-979.7 -1321.6,-1039.6 -307.6,-41.6 -6738.9,-1126 -10831.2,-1820.9 -1441.9,-244.8 -2593.3,-441.2 -3084.5,-526.8 -8.3,-1.4 -16.6,-2.8 -24.7,-4.2 -111.6,-19.5 -185.3,-32.5 -216.2,-38.4 -288.5,-55.1 -459.6,-61.1 -592.8,0 -111.3,51.2 -196.3,149.1 -301.3,304.6 -19.4,28.5 -44.7,69.6 -75,121 -151.6,257.2 -426.1,771.4 -679.5,1253.8 -300.8,572.8 -571.8,1100.9 -571.8,1100.9 l 441.3,16.2 732.3,26.8 1007.7,37 553.6,20.3 33.3,1.3 2675.9,98.2 1625.4,59.6 10629.1,390.2"
         style="fill:#ee2329;fill-opacity:1;fill-rule:nonzero;stroke:none"
         id="path42" />
      <path
         d="m 18799.2,17317.9 -2020.4,-81.2 469.9,1172.4 1593.3,4.9 -42.8,-1096.1"
         style="fill:#ee2329;fill-opacity:1;fill-rule:nonzero;stroke:none"
         id="path44" />
      <path
         d="m 13307.3,16769.1 c -622.2,-254.5 -2739.6,-1098.8 -3526.7,-1361.1 -304.4,-101.7 -1338.6,-69.8 -1297,1256.4 53.1,430.6 163.6,809.5 318.1,1140.3 l 0.1,0.2 h 0.1 c 3.4,7.5 6.9,14.8 10.2,22.1 h 0.1 c 2.9,6.1 5.8,12.2 8.6,18.2 l 0.4,0.8 0.1,0.2 c 621.5,1284.2 1910.5,1825.9 3029.4,1830.2 h 5.3 l 0.4,0.1 h 0.2 l 0.4,0.1 1.9,-0.1 c 6.5,0 13,0 19.5,-0.1 4.6,0 9.2,0 13.9,-0.1 17.5,-0.1 34.9,-0.4 52.2,-0.9 10.6,-0.2 21.1,-0.5 31.6,-0.9 464,-14.8 892.3,-123.2 1223,-309.8 6.6,-3.6 13.1,-7.3 19.5,-11.1 12.9,-7.4 25.6,-14.9 38.1,-22.7 12.6,-7.6 25,-15.4 37.2,-23.4 6.1,-4 12.2,-7.9 18.2,-12 5.2,-3.4 10.4,-6.8 15.5,-10.4 2.9,-2 5.8,-3.9 8.6,-5.9 9.8,-6.6 19.4,-13.5 28.9,-20.3 7.7,-5.6 15.1,-11.1 22.6,-16.7 l 0.1,-0.1 1.4,-1.1 c 561.9,-418.3 721.6,-919 669.9,-1363.4 v -0.1 l -0.1,-0.8 -0.2,-1.7 c -11.7,-99.6 -34,-196.4 -64.9,-288.7 l -0.1,-0.1 c -131.2,-393.6 -415.8,-706.4 -686.5,-817.1 z m 2676.6,2151.2 c -628.1,279 -1205.1,677.1 -1775.8,1023.9 -476.6,289.6 -948.8,543.5 -1442.7,661.9 -1567.5,376.5 -4074.1,-232.7 -5447.4,-2564.3 -138.4,-234.9 -233,-463.6 -290,-684.4 -509.4,-1970.9 1957.7,-3324.4 2740.4,-3046.4 610.2,216.5 4140.9,1510.3 6198.4,2265 h 0.1 0.1 c 878,322 1487.6,545.7 1487.6,545.7 l 18.9,142.9 152,1145.6 0.1,0.1 20.9,158 c -604.4,-23.7 -1150.4,124.6 -1662.6,352"
         style="fill:#ee2329;fill-opacity:1;fill-rule:nonzero;stroke:none"
         id="path46" />
      <path
         d="m 32096.7,27463.7 -7188.6,-7079.2 -624.8,-615.3 -1191.9,-1173.9 h -0.1 l -2982.7,-2937.5 h -0.1 l -0.1,-0.1 -314.5,-309.7 -1.7,-1.6 -314.4,-309.6 c 0,0 -85.1,240.4 -202.9,578.4 -62,177.6 -132.9,382.1 -205.3,592.9 -134.4,391.3 -273.8,804.1 -369.4,1105.8 -55.5,174.9 -96.2,312.3 -112.7,386.5 -75,334.9 -56.2,489.2 204.1,713.4 h 0.1 c 9.4,8.2 19.2,16.3 29.2,24.7 l 0.1,0.1 c 45.9,37.9 98.5,78 158.6,121.3 147,106.3 1453.1,1089.7 3134.8,2358.5 78.3,59.1 157.3,118.7 237.1,178.9 247,186.4 501.2,378.2 760,573.6 245.9,185.7 496,374.5 748.5,565.1 3030,2288.4 6381,4824 6573.7,4979.9 348.2,281.6 1033.5,638.4 1663,247.8"
         style="fill:#ee2329;fill-opacity:1;fill-rule:nonzero;stroke:none"
         id="path48" />
      <path
         d="m 19484.6,16614 -1445.4,-1413.7 1175,-462.8 1097,1155.5 -826.6,721"
         style="fill:#ee2329;fill-opacity:1;fill-rule:nonzero;stroke:none"
         id="path50" />
      <path
         d="m 20501.8,17193.6 c 259.5,105.3 384.4,401 279.1,660.4 -105.1,259.3 -400.9,384.3 -660.3,279.1 -259.5,-105.4 -384.3,-400.9 -279.2,-660.4 105.3,-259.5 401,-384.4 660.4,-279.1"
         style="fill:#912328;fill-opacity:1;fill-rule:nonzero;stroke:none"
         id="path52" />
      <path
         d="m 20564.3,18100.2 -498.3,-877.9 c -97.7,54.2 -179.3,138.9 -224.6,250.4 -105.1,259.5 19.7,555 279.2,660.4 150.8,61.1 312.9,42.6 443.7,-32.9"
         style="fill:#f8a5b4;fill-opacity:1;fill-rule:nonzero;stroke:none"
         id="path54" />
      <path
         d="M 17239.1,11287.4 C 17116.2,9930 15192.2,8121.7 13012.3,8847.9 l -0.1,0.1 c -28.6,9.6 -57.1,19.4 -85.8,29.9 h -0.1 c -246.7,89.5 -496.4,211.8 -746.9,371.2 l -0.2,0.2 c -35.3,22.3 -70.5,45.5 -105.6,69.3 -1025.9,841.4 -369.6,1640.9 -92.8,1803.4 475.3,278.9 1529.9,830.9 2360.7,1258.5 31.3,16.1 62.2,32 92.9,47.7 h 0.1 c 380.3,195.4 704.9,360.4 891.7,453.9 291.1,145.8 781.8,139.9 1194.5,-81.1 l 0.1,-0.1 c 439.7,-235 791,-714.1 718.3,-1513.5 z m 2232.7,3721.4 -969.9,644.1 -181.1,120.4 c 0,0 -146.9,-80.5 -398.8,-218.5 h -0.1 c -1407.1,-770.5 -6091.9,-3336.6 -6775,-3720.3 -356.1,-199.9 -683,-965.1 -707.5,-1800 v -0.1 -0.1 c -3.3,-111.5 -1.1,-224.1 7,-336.9 l -0.1,-0.2 c 69.1,-954.4 570.4,-1913.2 1897.7,-2162.7 2659.1,-499.9 4767.3,986.9 5515.5,2415 258.3,493.1 354.1,1066.4 432.5,1667 v 0.1 l -0.1,0.2 c 0.2,0.9 0.2,1.8 0.4,2.7 v 0.3 c 18.5,141.3 35.9,284.3 54.5,428.2 v 0.3 0.2 0.5 l 0.2,0.9 c 0.8,6 1.6,12 2.4,17.9 v 0.1 c 11,85.3 22.3,170.8 34.2,256.6 l 0.1,0.4 v 0.3 c 12.4,86.7 25.3,173.3 39.5,260.1 v 0.2 c 122.1,747.7 331.9,1494.2 890,2144.1 68.8,80.3 143.2,159.1 223.1,236.2 l -64.5,43"
         style="fill:#ee2329;fill-opacity:1;fill-rule:nonzero;stroke:none"
         id="path56" />
      <path
         d="m 11223.5,19545.8 c 681.3,213.2 2930.2,368.5 2930.2,368.5 781.7,425.7 1662.4,1091 1969.6,1175.2 307.2,84.2 887.5,-1176.5 36.5,-2010.8 -846.9,-830.3 -2570.5,-1368.1 -2570.5,-1368.1 l -2294.8,-1243.3 -2514.73,1349.4 2443.73,1729.1"
         style="fill:#323b6a;fill-opacity:1;fill-rule:nonzero;stroke:none"
         id="path58" />
      <path
         d="m 8824.5,17847.8 -44.49,-31.4 23.92,-12.9 c 6.89,14.8 13.5,29.8 20.57,44.3"
         style="fill:#d63a4e;fill-opacity:1;fill-rule:nonzero;stroke:none"
         id="path60" />
      <path
         d="m 11850.7,19676.5 c 592.7,1.4 1143,-148.4 1514.6,-417.9 567,-411.5 733.7,-943.2 693.4,-1385.3 687.6,91.8 1236.7,583.1 1917.9,970.7 -723.2,305.9 -1359,800.6 -1983.5,1194.7 -644.4,-175.2 -1504.6,-263.5 -2142.4,-362.2"
         style="fill:#ee2329;fill-opacity:1;fill-rule:nonzero;stroke:none"
         id="path62" />
      <path
         d="m 18349.4,12067.8 0.8,0.6 c 12.5,94.8 24.2,185.3 32.9,249.2 26.4,196.6 -768.3,621.2 -768.3,621.2 0,0 -1206.5,446.3 -1335.3,458.1 -128.2,10.9 -83.1,-147.4 20.3,-229.3 35,-28.2 108.2,-133 180.8,-278.9 22.6,-46.4 44.7,-95.6 65.2,-149.6 109.3,-279 178.8,-641.6 25.1,-929.1 -92.3,-172.1 -235.5,-325.5 -390.2,-450.8 -0.3,-1.4 -1.1,-2 -2,-2.6 l -1.7,-1.1 c -311.1,-251.9 -671.5,-394 -778,-362.3 0,0 168.2,-468.6 -388.9,-940.8 -555.7,-472.4 -979.8,-328.2 -1491.4,-80.1 -163.3,0.8 -315.3,-247.4 -259.2,-345.2 30.4,-52.2 48.6,-216.3 4.5,-390.4 l 0.6,-0.9 c -44.7,-180.5 -156.2,-371.7 -389.9,-460.4 -12.7,-4.9 -28.9,-8.4 -48.1,-9 -643.7,-49.6 -4573.98,1919.7 -5107.62,2717.7 l -1051.91,935.5 -859.46,147.8 -1361.02,234.7 566.73,4796.9 2213.01,-265.4 1878.72,584.5 3851.65,194.1 c 0,0 5742.7,-2898.5 6313.3,-3316.4 430.5,-608.6 270.7,-1739 -25.9,-2246.2 -186.5,-319.5 -952.6,-938.9 -952.6,-938.9 4.5,57.3 32,267 57.9,457.1"
         style="fill:#323b6a;fill-opacity:1;fill-rule:nonzero;stroke:none"
         id="path64" />
      <path
         d="m 18350.2,12068.4 c 12.5,94.8 24.2,185.3 32.9,249.2 26.4,196.6 -768.3,621.2 -768.3,621.2 0,0 -1206.5,446.3 -1335.3,458.1 -128.2,10.9 -83.1,-147.4 20.3,-229.3 35,-28.2 108.2,-133 180.8,-278.9 -120.5,149.3 -288.3,328.5 -414.8,484.8 -185.9,229.8 -67,625.8 -67,625.8 0,0 234.8,-304.1 339.7,-355.4 104.1,-51.9 1863.6,-855.2 1989.7,-994.6 123.9,-139.6 325.5,-49.2 325.5,-49.2 0,0 -118.6,-235.4 -124.4,-261.6 -5,-25.5 -159.7,-242.2 -179.1,-270.1"
         style="fill:#242641;fill-opacity:1;fill-rule:nonzero;stroke:none"
         id="path66" />
      <path
         d="m 16474.7,12824.3 c 0,0 27.4,-33.3 71.1,-85.2 109.3,-279 178.8,-641.6 25.1,-929.1 -92.3,-172.1 -235.5,-325.5 -390.2,-450.8 565.7,600.1 294,1465.1 294,1465.1"
         style="fill:#242641;fill-opacity:1;fill-rule:nonzero;stroke:none"
         id="path68" />
      <path
         d="m 12874.7,8775.4 c -12.7,-4.9 -28.9,-8.4 -48.1,-9 279.4,278.6 415.6,668.9 324.7,853 -131.3,287.7 53.7,530.9 139.6,723.4 88.5,-208 670.5,-370.3 985.8,-517.7 314.7,-146.5 826.2,417 1018.4,739.1 191.2,321.5 -320.1,1033.5 -320.1,1033.5 0,0 271.2,-264.8 450.2,-382 172.5,-113 714.8,123.4 751.8,139.8 -311.1,-251.9 -671.5,-394 -778,-362.3 0,0 168.2,-468.6 -388.9,-940.8 -555.7,-472.4 -979.8,-328.2 -1491.4,-80.1 -163.3,0.8 -315.3,-247.4 -259.2,-345.2 61.3,-105.4 74.7,-677.3 -384.8,-851.7"
         style="fill:#242641;fill-opacity:1;fill-rule:nonzero;stroke:none"
         id="path70" />
      <path
         d="m 14509,12223 -198,544.8 -885.5,-119.6 746.2,-108.1 337.3,-317.1"
         style="fill:#242641;fill-opacity:1;fill-rule:nonzero;stroke:none"
         id="path72" />
      <path
         d="m 12978.2,10611.8 -198,544.7 -885.5,-119.5 746.2,-108.1 337.3,-317.1"
         style="fill:#242641;fill-opacity:1;fill-rule:nonzero;stroke:none"
         id="path74" />
      <path
         d="m 6284.11,17999 -496.6,-5668.4 -1606.74,215 407.88,5609.8 1695.46,-156.4"
         style="fill:#ffffff;fill-opacity:1;fill-rule:nonzero;stroke:none"
         id="path76" />
      <path
         d="m 12874.7,8775.4 c -12.7,-4.9 -28.9,-8.4 -48.1,-9 -643.7,-49.6 -4573.98,1919.7 -5107.62,2717.7 l -1051.91,935.5 -859.46,147.8 97.53,1158.6 c 0,0 156.91,-219.7 631.44,-191.8 510.42,402.4 654.65,1225 670.53,1325.7 -10.31,-132.7 -114.03,-1501.5 126.92,-2141.9 700.33,-1745 3754.77,-3011.7 4627.27,-3386 838.1,-359.5 1302.7,-95.3 1302.7,-95.3 l 0.6,-0.9 c -44.7,-180.5 -156.2,-371.7 -389.9,-460.4"
         style="fill:#242641;fill-opacity:1;fill-rule:nonzero;stroke:none"
         id="path78" />
      <path
         d="M 4982.02,18420.9 0,19045.1 V 12169 l 4154.48,-180.5 827.54,6432.4"
         style="fill:#323b6a;fill-opacity:1;fill-rule:nonzero;stroke:none"
         id="path80" />
      <g
         id="g82">
        <g
           id="g84"
           clip-path="url(#clipPath88)">
          <path
             d="m 43931.3,9921.2 c -199.9,0 -417,20.6 -650.5,70 228.2,-47.2 440.4,-67 636.3,-67 1018.8,0 1589.5,536.4 1589.5,536.4 l 339,18.6 268.7,14.8 4.8,0.3 v -3.7 l -598.3,-33.1 c 0,0 -570.7,-536.3 -1589.5,-536.3"
             style="fill:url(#radialGradient94);fill-opacity:1;fill-rule:nonzero;stroke:none"
             id="path96" />
        </g>
      </g>
      <path
         d="m 37685.5,11446 c -370.4,49.7 -608.9,105.6 -793.9,147.9 -78.7,18 -151.7,40.1 -219.1,65.9 l 23.8,23.6 c 33.5,-12.2 68.1,-23.5 103.8,-33.7 27,-7.8 54.6,-15 82.9,-21.6 l 0.7,-0.2 c 2.9,-0.7 6,-1.4 9.1,-2.1 64.7,-14.9 133.4,-33.1 210.3,-53.1 150.9,-39.1 333.7,-85.3 582.4,-126.7"
         style="fill:#1d1f30;fill-opacity:1;fill-rule:nonzero;stroke:none"
         id="path98" />
      <path
         d="m 39686.8,11295.7 c -267.6,18.7 -574.6,37.3 -925.9,57.1 l 0.4,2.1 c 15,-0.8 29.9,-1.7 44.7,-2.5 333,-18.8 625.3,-36.7 881.1,-54.8 -0.1,-0.7 -0.2,-1.3 -0.3,-1.9"
         style="fill:#1d1f30;fill-opacity:1;fill-rule:nonzero;stroke:none"
         id="path100" />
      <path
         d="m 40895.2,11162.5 c -261.2,53.7 -648.6,93.9 -1208.4,133.2 0.1,0.6 0.2,1.2 0.3,1.9 h 0.1 l 5,-0.4 c 559.5,-39.5 944.8,-80.2 1203,-134.7"
         style="fill:#1d1f30;fill-opacity:1;fill-rule:nonzero;stroke:none"
         id="path102" />
      <path
         d="m 43917.1,9924.2 c -195.9,0 -408.1,19.8 -636.3,67 -601.7,127.3 -1311.8,445.5 -2114.7,1093.2 -69.3,29.2 -158.4,54.9 -270.9,78.1 -258.2,54.5 -643.5,95.2 -1203,134.7 l -5,0.4 h -0.1 c -255.8,18.1 -548.1,36 -881.1,54.8 -14.8,0.8 -29.7,1.7 -44.7,2.5 l 30.9,153.8 c 1131.6,-110.7 2245.9,-185.1 2245.9,-185.1 0,0 1096,-962.9 2682.9,-963 523.8,-0.1 1100.9,104.8 1710,383.8 l 685.6,30.5 2.5,-280.6 -4.8,-0.3 -268.7,-14.8 -339,-18.6 c 0,0 -570.7,-536.4 -1589.5,-536.4"
         style="fill:#242842;fill-opacity:1;fill-rule:nonzero;stroke:none"
         id="path104" />
      <path
         d="m 46119.1,10490.6 v 3.7 l -2.5,280.6 16.7,0.7 0.9,-284.2 -15.1,-0.8"
         style="fill:#5e657b;fill-opacity:1;fill-rule:nonzero;stroke:none"
         id="path106" />
      <path
         d="M 34658.2,9667.2 20398.4,24082.3 27794.5,31397.7 42053.8,16983.1 34658.2,9667.2"
         style="fill:#ffffff;fill-opacity:1;fill-rule:nonzero;stroke:none"
         id="path108" />
      <path
         d="M 21767.4,24074.4 27787,30029.2 40685.2,16990.5 34665.6,11035.7 21767.4,24074.4"
         style="fill:#83b8e6;fill-opacity:1;fill-rule:nonzero;stroke:none"
         id="path110" />
      <path
         d="m 35447.9,13340.9 2923.8,2892.4 c -422.8,427.4 -419.1,1116.7 8.3,1539.5 l -9835.6,9942.9 c -427.5,-422.8 -1116.8,-419.2 -1539.6,8.3 l -2923.9,-2892.3 c 422.9,-427.5 419.1,-1116.8 -8.3,-1539.6 l 9835.7,-9942.9 c 427.4,422.9 1116.7,419.2 1539.6,-8.3"
         style="fill:#ffffff;fill-opacity:1;fill-rule:nonzero;stroke:none"
         id="path112" />
      <path
         d="m 28622,23165.1 c 1454,1438.4 3798.7,1425.7 5237,-28.3 1438.3,-1454.1 1425.6,-3798.7 -28.4,-5237 -1453.9,-1438.3 -3798.6,-1425.7 -5237,28.4 -1438.3,1453.9 -1425.6,3798.6 28.4,5236.9"
         style="fill:#83b8e6;fill-opacity:1;fill-rule:nonzero;stroke:none"
         id="path114" />
      <path
         d="m 26238.3,25575.4 c 409.2,404.8 1069.2,401.3 1474,-8 404.9,-409.3 401.3,-1069.2 -8,-1474 -409.2,-404.9 -1069.1,-401.3 -1474,8 -404.8,409.2 -401.3,1069.1 8,1474"
         style="fill:#83b8e6;fill-opacity:1;fill-rule:nonzero;stroke:none"
         id="path116" />
      <path
         d="m 34651.9,17069 c 409.2,404.9 1069.2,401.3 1474,-7.9 404.8,-409.3 401.3,-1069.2 -8,-1474.1 -409.2,-404.8 -1069.2,-401.2 -1474,8 -404.8,409.3 -401.3,1069.2 8,1474"
         style="fill:#83b8e6;fill-opacity:1;fill-rule:nonzero;stroke:none"
         id="path118" />
      <path
         d="M 39234.6,13709.1 38758.7,11342 c -57.3,3.2 -115.7,6.6 -175.4,9.9 -45.3,2.6 -89.3,5.2 -132.1,8.1 -115.9,7.9 -223,17 -322.2,27.2 -1.1,0.1 -2,0.3 -3.1,0.3 -492.7,50.6 -794.4,125.9 -1022.8,185.2 -76.9,20 -145.6,38.2 -210.3,53.1 -3.1,0.7 -6.2,1.4 -9.1,2.1 l -0.7,0.2 c -28.3,6.6 -55.9,13.8 -82.9,21.6 -91.3,26.2 -175.4,59 -252.5,97 -51.5,25.3 -99.9,53.1 -145.2,82.9 l -0.6,0.3 c -207.4,136.5 -349.1,315.9 -427.8,505.6 -7.4,17.8 -14.2,35.5 -20.5,53.5 -50.1,143.2 -65.2,290.4 -46.7,428.7 0.4,3 0.8,6 1.2,9.1 26.4,182.9 112,349.4 253.7,468.4 15.3,12.9 31.3,25.1 47.8,36.9 l 1,0.6 c 121.6,85.5 332.1,120.2 615.7,140.5 30.5,2.3 61.6,4.3 93.6,6.1 2.8,0.2 5.4,0.4 8.3,0.6 346.6,20.3 788.2,27.3 1301.1,77.8 106.9,10.6 217,22.9 329.9,37.8 20.6,2.6 41.1,5.4 61.8,8.3 1.3,0.2 2.5,0.2 3.9,0.5 214.6,29.6 419.7,66 609.8,104.8"
         style="fill:#323b6a;fill-opacity:1;fill-rule:nonzero;stroke:none"
         id="path120" />
      <path
         d="m 36813,12305.3 -782.7,79 c -50.1,143.2 -65.3,290.5 -46.8,428.8 0.4,3 0.8,6 1.2,9.1 26.5,182.8 111.9,349.3 253.8,468.3 20.6,4.5 35.1,7.7 36.3,8 159.5,34.4 372.9,55.9 622.5,73 l 23.2,-2.2 -107.5,-1064"
         style="fill:#3c5497;fill-opacity:1;fill-rule:nonzero;stroke:none"
         id="path122" />
      <path
         d="m 32096.7,27463.7 -7188.6,-7079.2 -624.8,-615.3 -2168.9,1149.2 c 78.3,59.1 157.3,118.7 237.1,178.9 247,186.4 501.2,378.2 760,573.6 245.9,185.7 496,374.5 748.5,565.1 3030,2288.4 6381,4824 6573.7,4979.9 348.2,281.6 1033.5,638.4 1663,247.8"
         style="fill:#ee2329;fill-opacity:1;fill-rule:nonzero;stroke:none"
         id="path124" />
      <g
         id="g126">
        <g
           id="g128"
           clip-path="url(#clipPath132)">
          <path
             d="m 25322.9,19104.1 -385.8,390.1 385.8,-390.1 v 0"
             style="fill:url(#radialGradient138);fill-opacity:1;fill-rule:nonzero;stroke:none"
             id="path140" />
        </g>
      </g>
      <path
         d="m 25322.9,19104.1 -385.8,390.1 -460.4,465.4 689.5,679 767.5,-775.9 -610.8,-758.6"
         style="fill:#9ba6cb;fill-opacity:1;fill-rule:nonzero;stroke:none"
         id="path142" />
      <path
         d="m 25933.7,19862.7 -767.5,775.9 775.6,763.9 679,-686.4 -687.1,-853.4"
         style="fill:#5c82cb;fill-opacity:1;fill-rule:nonzero;stroke:none"
         id="path144" />
      <path
         d="m 31277.9,26500.3 -78.7,79.6 689.5,679 -610.8,-758.6"
         style="fill:#9ba6cb;fill-opacity:1;fill-rule:nonzero;stroke:none"
         id="path146" />
      <path
         d="m 30590.8,25646.9 -167.3,169.1 15.5,15.3 760.2,748.6 78.7,-79.6 -687.1,-853.4"
         style="fill:#5c82cb;fill-opacity:1;fill-rule:nonzero;stroke:none"
         id="path148" />
      <path
         d="m 26620.8,20716.1 -679,686.4 4481.7,4413.5 167.3,-169.1 -2195.6,-2727 c -38.3,-45.3 -75.4,-91.4 -111.3,-138.2 l -1663.1,-2065.6"
         style="fill:#9ba6cb;fill-opacity:1;fill-rule:nonzero;stroke:none"
         id="path150" />
      <path
         d="m 28283.9,22781.7 c 35.9,46.8 73,92.9 111.3,138.2 l -111.3,-138.2"
         style="fill:#5c82cb;fill-opacity:1;fill-rule:nonzero;stroke:none"
         id="path152" />
      <path
         d="m 30439,25831.3 1449.7,1427.6 -689.5,-679 -760.2,-748.6"
         style="fill:#98213b;fill-opacity:1;fill-rule:nonzero;stroke:none"
         id="path154" />
    </g>
  </g>
</svg>
